<?xml version="1.0" encoding="UTF-8"?>
<svg version="1.1" xmlns="http://www.w3.org/2000/svg" width="61" height="61">
<path d="M0 0 C6.517904 4.68956663 12.55343845 10.81246164 14 19 C14.7992898 30.25557271 13.99078008 38.31915226 6.75 47.25 C1.33164802 53.0878373 -4.3711544 56.67129269 -12.35546875 57.23828125 C-23.57071698 57.45549809 -30.8402179 55.69919895 -39.20703125 47.93359375 C-46.38318634 40.19460297 -47.48473506 33.10670258 -47.2734375 22.765625 C-46.64352117 14.09077723 -42.28194806 7.82507911 -36 2 C-25.82502277 -5.66451556 -10.93235165 -7.28107507 0 0 Z " fill="#38095D" transform="translate(47,4)"/>
<path d="M0 0 C1.5625 2.3125 1.5625 2.3125 3 5 C5.06467856 7.40879165 5.88994659 7.96331553 9 9 C9.1546875 10.5159375 9.1546875 10.5159375 9.3125 12.0625 C9.84401802 15.10664864 10.32285746 16.98601485 11.5625 19.6875 C13 23 13 23 13 27 C10.8828125 29 10.8828125 29 8.125 31 C4.80117279 33.42421585 2.5097656 35.11278742 1 39 C-0.03447266 38.80083984 -0.03447266 38.80083984 -1.08984375 38.59765625 C-2.02957031 38.42105469 -2.96929687 38.24445312 -3.9375 38.0625 C-5.44183594 37.77439453 -5.44183594 37.77439453 -6.9765625 37.48046875 C-9.64175457 37.05693047 -12.12335279 36.93465685 -14.8125 36.875 C-17.61714989 36.60455162 -18.68624171 36.29835052 -20.75 34.3359375 C-22.28841368 32.28215524 -23.65607828 30.18490341 -25 28 C-27.30426766 24.97153393 -28.8236141 23.1175906 -32 21 C-31.505 19.515 -31.505 19.515 -31 18 C-30.34 18 -29.68 18 -29 18 C-28.7215625 17.4225 -28.443125 16.845 -28.15625 16.25 C-26.68204255 13.38127198 -24.95727297 10.71379195 -23.21875 8 C-21.91716372 6.0500535 -21.91716372 6.0500535 -21.3359375 3.828125 C-20 2 -20 2 -16.4453125 1.171875 C-15.00717623 1.01237745 -13.56676025 0.87248583 -12.125 0.75 C-11.40441406 0.67265625 -10.68382813 0.5953125 -9.94140625 0.515625 C-6.60623777 0.17166656 -3.3553284 0 0 0 Z " fill="#511B7E" transform="translate(37,9)"/>
<path d="M0 0 C1.17369141 0.11794922 1.17369141 0.11794922 2.37109375 0.23828125 C4.5625 0.6875 4.5625 0.6875 7.5625 2.6875 C8.160625 2.1925 8.75875 1.6975 9.375 1.1875 C11.5625 -0.3125 11.5625 -0.3125 14.5625 -0.3125 C18.12043261 8.43408433 18.12043261 8.43408433 17.5625 12.6875 C14.70408343 17.12686795 11.0686391 21.01919624 5.8671875 22.40625 C-1.18866224 22.64747563 -8.77875924 20.91773959 -14.171875 16.15625 C-17.4375 12.4136236 -17.4375 12.4136236 -17.4375 9.6875 C-15.7875 9.6875 -14.1375 9.6875 -12.4375 9.6875 C-12.4375 9.0275 -12.4375 8.3675 -12.4375 7.6875 C-13.7575 8.0175 -15.0775 8.3475 -16.4375 8.6875 C-16.1075 8.0275 -15.7775 7.3675 -15.4375 6.6875 C-14.303125 6.39875 -13.16875 6.11 -12 5.8125 C-8.38324911 5.09011136 -8.38324911 5.09011136 -7.125 2.625 C-6.898125 1.985625 -6.67125 1.34625 -6.4375 0.6875 C-3.97648622 -0.54300689 -2.71323817 -0.29850075 0 0 Z " fill="#310852" transform="translate(29.4375,22.3125)"/>
<path d="M0 0 C9.45836303 1.26987281 15.84842051 5.7553686 21.74609375 13.1796875 C26.97425276 20.76947597 26.84730713 29.06476118 26 38 C23.93773209 46.44547811 17.99846929 53.26728904 10.8125 57.9375 C3.48089152 62.34243789 -6.53386398 62.31124072 -14.703125 60.3515625 C-23.11483939 56.91040661 -30.26459598 50.31533417 -34 42 C-34.60916953 39.5996902 -34.84459069 37.4865489 -35 35 C-32.81674759 37.18325241 -32.05815786 38.94408126 -30.8125 41.75 C-27.67591813 48.12434379 -23.88153414 51.39299058 -17.75 54.8125 C-9.12125971 57.54493443 -1.32874375 57.79082357 7 54 C14.34676126 49.84972434 18.38303332 44.31191116 21.3125 36.5 C23.10863187 27.35605592 21.47774493 20.03423292 16.8203125 11.953125 C12.59050669 6.2966983 6.31632951 3.79022323 0 1 C0 0.67 0 0.34 0 0 Z " fill="#862FCE" transform="translate(35,0)"/>
<path d="M0 0 C0.66 1.65 1.32 3.3 2 5 C5.63 4.67 9.26 4.34 13 4 C13.33 7.96 13.66 11.92 14 16 C6.04389069 16.45463482 -1.47895991 15.98257913 -7.73828125 10.46875 C-11 6.72007042 -11 6.72007042 -11 4 C-9.35 4 -7.7 4 -6 4 C-6 3.34 -6 2.68 -6 2 C-7.32 2.33 -8.64 2.66 -10 3 C-9 1 -9 1 -6.125 -0.1875 C-3 -1 -3 -1 0 0 Z " fill="#3A0D5E" transform="translate(23,28)"/>
<path d="M0 0 C1.04644066 1.63790712 2.0398183 3.31008021 3 5 C5.57183314 7.27537692 5.57183314 7.27537692 8 9 C7.67 9.99 7.34 10.98 7 12 C6.34 12 5.68 12 5 12 C5 11.01 5 10.02 5 9 C4.01 8.67 3.02 8.34 2 8 C1.34 7.01 0.68 6.02 0 5 C-5.11421957 3.54177039 -10.9151622 3.63100521 -16 5 C-20.42072974 8.45032565 -24.83964113 13.76493951 -27 19 C-25.70605716 23.91999198 -22.70761636 27.61041845 -19 31 C-16.68192888 32.32394844 -14.5446 33.134836 -12 34 C-14.64738916 35.4606285 -15.89448334 36 -19 36 C-20.46484375 34.42578125 -20.46484375 34.42578125 -21.9375 32.3125 C-22.45828125 31.58417969 -22.9790625 30.85585938 -23.515625 30.10546875 C-24.00546875 29.41066406 -24.4953125 28.71585938 -25 28 C-27.30426766 24.97153393 -28.8236141 23.1175906 -32 21 C-31.505 19.515 -31.505 19.515 -31 18 C-30.34 18 -29.68 18 -29 18 C-28.7215625 17.4225 -28.443125 16.845 -28.15625 16.25 C-26.68204255 13.38127198 -24.95727297 10.71379195 -23.21875 8 C-21.91716372 6.0500535 -21.91716372 6.0500535 -21.3359375 3.828125 C-20 2 -20 2 -16.4453125 1.171875 C-15.00717623 1.01237745 -13.56676025 0.87248583 -12.125 0.75 C-11.40441406 0.67265625 -10.68382813 0.5953125 -9.94140625 0.515625 C-6.60623777 0.17166656 -3.3553284 0 0 0 Z " fill="#C1A5D7" transform="translate(37,9)"/>
<path d="M0 0 C0.33 0.99 0.66 1.98 1 3 C2.32 2.01 3.64 1.02 5 0 C5.103125 1.010625 5.20625 2.02125 5.3125 3.0625 C5.84401802 6.10664864 6.32285746 7.98601485 7.5625 10.6875 C9 14 9 14 9 18 C6.8828125 20 6.8828125 20 4.125 22 C0.80117279 24.42421585 -1.4902344 26.11278742 -3 30 C-3.72445312 29.86722656 -4.44890625 29.73445313 -5.1953125 29.59765625 C-10.12491105 28.69718291 -15.05322123 27.80218034 -20 27 C-16.42723536 24.72799918 -13.88939348 25.0120674 -9.75 25.375 C-4.63933969 25.45575535 -1.94782359 24.97161011 1.875 21.5 C3.78406154 19.23874262 4.8895154 17.805801 5.29296875 14.86328125 C5.08116958 12.48831808 5.08116958 12.48831808 4 9 C3.814375 8.01 3.62875 7.02 3.4375 6 C3.293125 5.34 3.14875 4.68 3 4 C1.35 4.33 -0.3 4.66 -2 5 C-1.34 3.35 -0.68 1.7 0 0 Z " fill="#7327B3" transform="translate(41,18)"/>
<path d="M0 0 C2 2 2 2 4 5 C7.3 4.67 10.6 4.34 14 4 C14.33 7.96 14.66 11.92 15 16 C13.4325 16.04125 11.865 16.0825 10.25 16.125 C9.36828125 16.14820312 8.4865625 16.17140625 7.578125 16.1953125 C4.8864142 15.99139502 3.30095026 15.36551721 1 14 C2.43554025 13.49440092 3.8735202 12.9957251 5.3125 12.5 C6.11300781 12.2215625 6.91351563 11.943125 7.73828125 11.65625 C10 11 10 11 13 11 C13 9.68 13 8.36 13 7 C11.3745692 7.14095064 9.74965949 7.28792087 8.125 7.4375 C7.22007813 7.51871094 6.31515625 7.59992187 5.3828125 7.68359375 C2.98889139 7.86989285 2.98889139 7.86989285 1 9 C1 8.01 1 7.02 1 6 C0.01 5.67 -0.98 5.34 -2 5 C-1.01 5 -0.02 5 1 5 C0.67 3.35 0.34 1.7 0 0 Z " fill="#53217C" transform="translate(22,28)"/>
<path d="M0 0 C-0.33 2.64 -0.66 5.28 -1 8 C-1.66 8 -2.32 8 -3 8 C-3 8.33 -3 8.66 -3 9 C-6.3125 9.25 -6.3125 9.25 -10 9 C-11.9375 7.25 -11.9375 7.25 -13 5 C-13 3.68 -13 2.36 -13 1 C-8.61414671 0.29826347 -4.44209357 -0.10834375 0 0 Z " fill="#481571" transform="translate(34,12)"/>
<path d="M0 0 C3.78012495 0.42001388 6.66152773 1.22575769 10 3 C9.08877273 4.10865985 8.17073341 5.21172219 7.25 6.3125 C6.73953125 6.92738281 6.2290625 7.54226562 5.703125 8.17578125 C3.94461466 10.05932329 2.10080364 11.51573656 0 13 C-0.19397476 11.02145742 -0.38001321 9.0421352 -0.5625 7.0625 C-0.66691406 5.96035156 -0.77132812 4.85820313 -0.87890625 3.72265625 C-0.91886719 2.82417969 -0.95882812 1.92570312 -1 1 C-0.67 0.67 -0.34 0.34 0 0 Z " fill="#1B042E" transform="translate(37,31)"/>
<path d="M0 0 C0 4 0 4 -1.57421875 5.7109375 C-2.27160156 6.26007812 -2.96898437 6.80921875 -3.6875 7.375 C-7.2842475 10.3328936 -10.13912408 13.33450273 -13 17 C-13.99 16.67 -14.98 16.34 -16 16 C-14.73390325 10.6032626 -12.24453287 7.93853863 -8 4.625 C-7.4534375 4.17511719 -6.906875 3.72523437 -6.34375 3.26171875 C-2.29882219 0 -2.29882219 0 0 0 Z " fill="#13021F" transform="translate(53,34)"/>
<path d="M0 0 C0.33 0.99 0.66 1.98 1 3 C0.01 4.32 -0.98 5.64 -2 7 C2.95 5.515 2.95 5.515 8 4 C7.67 5.65 7.34 7.3 7 9 C4.69 9.66 2.38 10.32 0 11 C0.66 11 1.32 11 2 11 C2 11.66 2 12.32 2 13 C2.66 13.33 3.32 13.66 4 14 C1.36 14 -1.28 14 -4 14 C-5.1796875 11.80078125 -5.1796875 11.80078125 -6 9 C-4.8828125 6.54296875 -4.8828125 6.54296875 -3.125 4.1875 C-2.55007812 3.39730469 -1.97515625 2.60710938 -1.3828125 1.79296875 C-0.92648438 1.20128906 -0.47015625 0.60960938 0 0 Z " fill="#52217A" transform="translate(15,19)"/>
<path d="M0 0 C9.65436423 1.29618779 15.72505898 5.87643082 21.8125 13.3203125 C23.3010376 15.42580976 24.25331999 17.53595595 25 20 C24.01 20.66 23.02 21.32 22 22 C21.64808594 21.27554687 21.29617187 20.55109375 20.93359375 19.8046875 C15.77067633 9.6945359 10.53422691 5.0608131 0 1 C0 0.67 0 0.34 0 0 Z " fill="#9650CF" transform="translate(35,0)"/>
<path d="M0 0 C1.37478516 0.01740234 1.37478516 0.01740234 2.77734375 0.03515625 C3.69644531 0.04417969 4.61554687 0.05320313 5.5625 0.0625 C6.27277344 0.07410156 6.98304687 0.08570313 7.71484375 0.09765625 C7.71484375 1.41765625 7.71484375 2.73765625 7.71484375 4.09765625 C3.17782881 5.54950103 -0.46577101 6.33274821 -5.28515625 6.09765625 C-2.98903326 0.12773646 -2.98903326 0.12773646 0 0 Z " fill="#22053A" transform="translate(27.28515625,34.90234375)"/>
<path d="M0 0 C1.04644066 1.63790712 2.0398183 3.31008021 3 5 C5.57183314 7.27537692 5.57183314 7.27537692 8 9 C7.67 9.99 7.34 10.98 7 12 C6.34 12 5.68 12 5 12 C5 11.01 5 10.02 5 9 C4.01 8.67 3.02 8.34 2 8 C1.34 7.01 0.68 6.02 0 5 C-2.08946936 4.38115949 -2.08946936 4.38115949 -4.4375 4.25 C-5.61119141 4.13398438 -5.61119141 4.13398438 -6.80859375 4.015625 C-9.18053232 3.880742 -9.18053232 3.880742 -12 5 C-12 4.34 -12 3.68 -12 3 C-14.64 3 -17.28 3 -20 3 C-20 2.67 -20 2.34 -20 2 C-17.41703099 1.66361334 -14.83368737 1.3307835 -12.25 1 C-11.15558594 0.85691406 -11.15558594 0.85691406 -10.0390625 0.7109375 C-6.65143196 0.27978452 -3.42145141 0 0 0 Z " fill="#AC84CD" transform="translate(37,9)"/>
<path d="M0 0 C0.99 0.33 1.98 0.66 3 1 C4.04111729 3.94519277 4.43536684 6.91623428 5 10 C0.545 8.02 0.545 8.02 -4 6 C-4 5.01 -4 4.02 -4 3 C-2.1875 1.25 -2.1875 1.25 0 0 Z " fill="#25073E" transform="translate(42,23)"/>
<path d="M0 0 C3.16115776 1.36983503 3.9927092 1.9890638 6 5 C5.875 7.0625 5.875 7.0625 5 9 C2.9375 10.25 2.9375 10.25 1 11 C0.34 10.34 -0.32 9.68 -1 9 C-0.9765625 6.8359375 -0.9765625 6.8359375 -0.625 4.375 C-0.51414063 3.55773437 -0.40328125 2.74046875 -0.2890625 1.8984375 C-0.19367187 1.27195312 -0.09828125 0.64546875 0 0 Z " fill="#340A56" transform="translate(35,13)"/>
<path d="M0 0 C2.51289476 2.44309213 4.83421314 4.7678984 6.875 7.625 C9.65554003 10.73266238 12.10954112 11.57848618 16 13 C13.35261084 14.4606285 12.10551666 15 9 15 C7.5 13.35546875 7.5 13.35546875 6 11.1875 C3.87868291 8.14318957 3.87868291 8.14318957 1.3125 5.48828125 C0 4 0 4 0 0 Z " fill="#A77DC9" transform="translate(9,30)"/>
<path d="M0 0 C0.33 0.99 0.66 1.98 1 3 C2.32 2.01 3.64 1.02 5 0 C5.103125 1.010625 5.20625 2.02125 5.3125 3.0625 C6.04101223 7.23488821 7.23616585 10.17835935 9 14 C9.33 14.99 9.66 15.98 10 17 C8.35 16.67 6.7 16.34 5 16 C4.855625 14.948125 4.71125 13.89625 4.5625 12.8125 C4.12473034 9.84539451 3.62195134 6.93205634 3 4 C1.35 4.33 -0.3 4.66 -2 5 C-1.34 3.35 -0.68 1.7 0 0 Z " fill="#772EB3" transform="translate(41,18)"/>
<path d="M0 0 C0.33 0 0.66 0 1 0 C1 2.97 1 5.94 1 9 C2.32 9.66 3.64 10.32 5 11 C4.01 11.66 3.02 12.32 2 13 C1.34 12.34 0.68 11.68 0 11 C-2.13432323 10.53889931 -2.13432323 10.53889931 -4.5 10.375 C-5.2940625 10.30023438 -6.088125 10.22546875 -6.90625 10.1484375 C-8.2683114 10.05187345 -9.63451992 10 -11 10 C-10.67 9.01 -10.34 8.02 -10 7 C-8.02 7 -6.04 7 -4 7 C-3.67 6.34 -3.34 5.68 -3 5 C-2.67 5.33 -2.34 5.66 -2 6 C-1.34 4.02 -0.68 2.04 0 0 Z " fill="#76459D" transform="translate(34,13)"/>
<path d="M0 0 C0.33 0.99 0.66 1.98 1 3 C0.01 4.32 -0.98 5.64 -2 7 C2.95 5.515 2.95 5.515 8 4 C7.67 5.65 7.34 7.3 7 9 C6.67 8.34 6.34 7.68 6 7 C0.555 8.485 0.555 8.485 -5 10 C-5 6.60406522 -4.47834052 5.93380119 -2.5 3.3125 C-2.0359375 2.68988281 -1.571875 2.06726563 -1.09375 1.42578125 C-0.7328125 0.95527344 -0.371875 0.48476563 0 0 Z " fill="#693892" transform="translate(15,19)"/>
<path d="M0 0 C0.94875 0.04125 1.8975 0.0825 2.875 0.125 C2.545 2.765 2.215 5.405 1.875 8.125 C0.885 7.465 -0.105 6.805 -1.125 6.125 C-1.125 5.135 -1.125 4.145 -1.125 3.125 C-2.445 2.795 -3.765 2.465 -5.125 2.125 C-3.125 0.125 -3.125 0.125 0 0 Z " fill="#3C0E62" transform="translate(31.125,11.875)"/>
<path d="M0 0 C2.76140736 2.76140736 4.01614651 5.99002559 5.68359375 9.4921875 C6.9347106 11.87562079 8.32460473 13.89965024 10 16 C9.01 16 8.02 16 7 16 C2.66308623 11.24234087 0.2723273 6.39969165 0 0 Z " fill="#B28BD3" transform="translate(0,35)"/>
<path d="M0 0 C6.56935936 0.99806593 10.90885874 2.66711382 16 7 C16 7.66 16 8.32 16 9 C10.66666667 6.33333333 5.33333333 3.66666667 0 1 C0 0.67 0 0.34 0 0 Z " fill="#A675CE" transform="translate(35,0)"/>
<path d="M0 0 C0 0.99 0 1.98 0 3 C-1.45792884 3.05399736 -2.91642712 3.09279177 -4.375 3.125 C-5.18710937 3.14820313 -5.99921875 3.17140625 -6.8359375 3.1953125 C-9 3 -9 3 -11 1 C-3.375 -1.125 -3.375 -1.125 0 0 Z " fill="#210737" transform="translate(36,41)"/>
<path d="M0 0 C0.33 0.99 0.66 1.98 1 3 C-0.375 5 -0.375 5 -2 7 C-2.33 7.99 -2.66 8.98 -3 10 C-3.99 10 -4.98 10 -6 10 C-5.690625 9.4225 -5.38125 8.845 -5.0625 8.25 C-3.92922397 6.0792179 -3.92922397 6.0792179 -3.5625 3.875 C-3 2 -3 2 0 0 Z " fill="#36085B" transform="translate(19,16)"/>
<path d="M0 0 C2.64 0.99 5.28 1.98 8 3 C5.35261084 4.4606285 4.10551666 5 1 5 C0.34 3.68 -0.32 2.36 -1 1 C-0.67 0.67 -0.34 0.34 0 0 Z " fill="#985BCB" transform="translate(17,40)"/>
<path d="M0 0 C1.37478516 0.01740234 1.37478516 0.01740234 2.77734375 0.03515625 C3.69644531 0.04417969 4.61554687 0.05320313 5.5625 0.0625 C6.27277344 0.07410156 6.98304687 0.08570313 7.71484375 0.09765625 C7.71484375 0.42765625 7.71484375 0.75765625 7.71484375 1.09765625 C4.74484375 1.09765625 1.77484375 1.09765625 -1.28515625 1.09765625 C-1.94515625 2.74765625 -2.60515625 4.39765625 -3.28515625 6.09765625 C-3.94515625 6.09765625 -4.60515625 6.09765625 -5.28515625 6.09765625 C-2.98903326 0.12773646 -2.98903326 0.12773646 0 0 Z " fill="#290646" transform="translate(27.28515625,34.90234375)"/>
<path d="M0 0 C1.32 0.33 2.64 0.66 4 1 C1.36 2.98 -1.28 4.96 -4 7 C-4 4 -4 4 -2.25 1.75 C-1.5075 1.1725 -0.765 0.595 0 0 Z " fill="#6718A9" transform="translate(46,35)"/>
<path d="M0 0 C3.18401617 1.85734277 6.03490401 3.77617801 9 6 C5.7 5.67 2.4 5.34 -1 5 C-0.67 3.35 -0.34 1.7 0 0 Z " fill="#5C2687" transform="translate(37,27)"/>
<path d="M0 0 C2 2 2 2 3 5 C3.66 5.66 4.32 6.32 5 7 C3.02 7.99 3.02 7.99 1 9 C1 8.01 1 7.02 1 6 C0.01 5.67 -0.98 5.34 -2 5 C-1.01 5 -0.02 5 1 5 C0.67 3.35 0.34 1.7 0 0 Z " fill="#73429B" transform="translate(22,28)"/>
<path d="M0 0 C0.66 0 1.32 0 2 0 C2.33 2.97 2.66 5.94 3 9 C2.34 8.67 1.68 8.34 1 8 C0.26924352 5.6859378 -0.40138258 3.35171131 -1 1 C-0.67 0.67 -0.34 0.34 0 0 Z " fill="#1C062E" transform="translate(46,20)"/>
<path d="M0 0 C2.97 1.98 2.97 1.98 6 4 C5.67 4.99 5.34 5.98 5 7 C4.34 7 3.68 7 3 7 C3 6.01 3 5.02 3 4 C2.01 3.67 1.02 3.34 0 3 C0 2.01 0 1.02 0 0 Z " fill="#995DCB" transform="translate(39,14)"/>
</svg>
